<mxfile host="app.diagrams.net" modified="2022-04-17T16:15:06.173Z" agent="5.0 (Windows NT 10.0; Win64; x64) AppleWebKit/537.36 (KHTML, like Gecko) Chrome/96.0.4664.110 Safari/537.36" etag="awjUL13eAs7o5XvBWbTn" version="17.4.5" type="github">
  <diagram id="H2w61bHAPLmcusXaM4RN" name="Page-1">
    <mxGraphModel dx="716" dy="377" grid="1" gridSize="10" guides="1" tooltips="1" connect="1" arrows="1" fold="1" page="1" pageScale="1" pageWidth="827" pageHeight="1169" math="0" shadow="0">
      <root>
        <mxCell id="0" />
        <mxCell id="1" parent="0" />
        <mxCell id="LNiDj-Up5Uc93OdZaZMt-1" value="二叉树" style="ellipse;whiteSpace=wrap;html=1;aspect=fixed;" vertex="1" parent="1">
          <mxGeometry x="350" y="210" width="60" height="60" as="geometry" />
        </mxCell>
        <mxCell id="LNiDj-Up5Uc93OdZaZMt-2" value="什么鬼" style="shape=process;whiteSpace=wrap;html=1;backgroundOutline=1;" vertex="1" parent="1">
          <mxGeometry x="335" y="120" width="90" height="40" as="geometry" />
        </mxCell>
        <mxCell id="LNiDj-Up5Uc93OdZaZMt-3" value="" style="shape=parallelogram;perimeter=parallelogramPerimeter;whiteSpace=wrap;html=1;fixedSize=1;" vertex="1" parent="1">
          <mxGeometry x="170" y="170" width="120" height="60" as="geometry" />
        </mxCell>
      </root>
    </mxGraphModel>
  </diagram>
</mxfile>
